<svg width="35" height="35" viewBox="0 0 35 35" xmlns="http://www.w3.org/2000/svg">
    <g fill-rule="nonzero" fill="none">
        <path d="M17.5 0C27.166 0 35 7.834 35 17.5 34.999 27.166 27.165 35 17.5 35 7.835 34.998.002 27.166 0 17.5.001 7.834 7.834 0 17.5 0z" fill="#F7931B"/>
        <path d="M23.4 18.558c-.467-.654-.99-1.113-1.94-1.375.69-.317 1.213-.723 1.565-1.22.353-.496.53-1.116.53-1.86 0-.69-.12-1.27-.357-1.737a2.881 2.881 0 0 0-1.004-1.128c-.432-.282-.95-.485-1.555-.61a9.844 9.844 0 0 0-1.827-.182V8.75h-4.047v1.693h-3.39v14.763h3.39v1.574h4.047v-1.574h.035c.69 0 1.177-.083 1.832-.248a5.513 5.513 0 0 0 1.749-.765c.512-.345.918-.79 1.221-1.334.302-.545.453-1.189.453-1.933 0-.923-.234-1.713-.702-2.368zm-8.705-5.983h3.19c.304 0 .597.023.879.069.282.046.532.127.75.245.216.118.389.281.52.49.13.21.195.478.195.805 0 .59-.196 1.014-.586 1.276-.39.262-.89.393-1.497.393h-3.45v-3.278zm4.962 9.922c-.38.307-.869.459-1.462.459h-3.5V19.13h3.246c.296 0 .582.028.857.081.277.054.52.15.732.286.211.138.38.329.507.573.127.243.192.557.192.938 0 .689-.191 1.184-.572 1.488z" fill="#FFF"/>
    </g>
</svg>
