<svg width="13" height="20" viewBox="0 0 13 20" xmlns="http://www.w3.org/2000/svg">
    <path d="M7.962 4.737a4.1 4.1 0 0 1 2.261 1.368l.492.579 1.917-2-.541-.58C11.01 2.948 9.584 2.264 7.913 2V0H5.407v2C2.654 2.37.787 4.158.787 6.474c0 2.947 2.506 3.842 4.62 4.421v4.421a5.684 5.684 0 0 1-2.999-1.684l-.54-.58L0 15.106l.492.527c1.18 1.316 2.9 2.21 4.866 2.421V20h2.506v-1.947c3.49-.474 4.718-2.684 4.718-4.737.099-3.158-2.654-4.21-4.62-4.737V4.737zm0 10.579v-3.737c1.376.474 1.917 1 1.917 1.842 0 .368-.148 1.526-1.917 1.895zM5.456 4.684v3.158C4.178 7.421 3.686 7 3.686 6.368c0-.737.688-1.421 1.77-1.684z" fill="gray" fill-rule="nonzero"/>
</svg>
