<svg width="64" height="64" viewBox="0 0 64 64" xmlns="http://www.w3.org/2000/svg">
    <g fill-rule="nonzero" fill="none">
        <path d="M32 64C14.356 64 0 49.644 0 32S14.356 0 32 0s32 14.356 32 32-14.356 32-32 32z" fill="#FE6971"/>
        <g fill="#FFF">
            <path d="M50.736 14.404a3.178 3.178 0 0 0-2.244-.93c-.843 0-1.647.328-2.244.93L32.975 27.552l-12.951-13.11a3.207 3.207 0 0 0-4.48-.023c-1.249 1.213-1.264 3.219-.039 4.47L30.7 34.249a3.183 3.183 0 0 0 4.488.007l15.533-15.375a3.174 3.174 0 0 0 .023-4.462l-.008-.015z"/>
            <path d="M50.736 48.473a3.178 3.178 0 0 1-2.244.93 3.146 3.146 0 0 1-2.244-.93L32.975 35.325l-12.951 13.11a3.207 3.207 0 0 1-4.48.023c-1.249-1.213-1.264-3.219-.039-4.47L30.7 28.629a3.183 3.183 0 0 1 4.488-.007l15.533 15.375a3.174 3.174 0 0 1 .023 4.462l-.008.015z"/>
        </g>
    </g>
</svg>
