<svg width="15" height="15" viewBox="0 0 15 15" xmlns="http://www.w3.org/2000/svg">
    <g fill="#D4D1F3" fill-rule="nonzero">
        <path d="M2.197 2.197a7.5 7.5 0 1 0 10.608 10.607A7.5 7.5 0 0 0 2.197 2.197zM7.5 13.929a6.428 6.428 0 1 1 0-12.857 6.428 6.428 0 0 1 0 12.857z"/>
        <path d="M7.5 5.294c-.117 0-.23.065-.312.181a.76.76 0 0 0-.13.437v4.94c0 .222.085.426.221.536.137.11.305.11.442 0 .136-.11.22-.314.22-.535V5.912a.76.76 0 0 0-.129-.437c-.083-.116-.195-.18-.312-.18zM7.941 3.97a.441.441 0 1 1-.882 0 .441.441 0 0 1 .882 0"/>
    </g>
</svg>
