<svg width="32" height="20" viewBox="0 0 32 20" xmlns="http://www.w3.org/2000/svg">
    <g fill="gray" fill-rule="nonzero">
        <path d="M15.516 0c-2.125 0-3.792 2.048-3.792 4.484 0 2.434 1.667 4.482 3.792 4.482 2.127 0 3.794-2.048 3.794-4.482C19.31 2.048 17.643 0 15.516 0zm0 1.086c1.501 0 2.77 1.48 2.77 3.398 0 1.915-1.269 3.396-2.77 3.396-1.498 0-2.768-1.481-2.768-3.396 0-1.918 1.27-3.398 2.768-3.398z"/>
        <path d="M12.596 8.99c-.692.209-1.354.5-1.948.88a6.855 6.855 0 0 0-1.763-.812.496.496 0 0 0-.153-.025.52.52 0 0 0-.42.239c-.441.67-1.094 1.068-1.827 1.068-.73 0-1.391-.397-1.835-1.068a.517.517 0 0 0-.566-.214c-1.098.332-2.105.9-2.853 1.743C.483 11.644.014 12.772.003 14.1c-.01 1.162.011 2.38.04 3.23.009.239.183.46.404.512 3.176.759 5.218 1.031 7.582.812a.536.536 0 0 0 .364.325c5.704 1.363 8.198 1.363 13.902 0a.556.556 0 0 0 .404-.513c.034-.984.07-2.394.057-3.734-.013-1.512-.555-2.79-1.406-3.75-.852-.96-2-1.611-3.258-1.991-.24-.068-.458.064-.566.213-.524.794-1.306 1.273-2.182 1.273-.873 0-1.659-.479-2.182-1.273-.16-.214-.336-.278-.566-.213zm-.049 1.154c.693.867 1.69 1.426 2.797 1.426 1.108 0 2.103-.56 2.796-1.426.978.345 1.834.886 2.458 1.589.693.78 1.113 1.756 1.123 3.007a85.132 85.132 0 0 1-.04 3.264c-5.226 1.225-7.443 1.223-12.666 0a81.138 81.138 0 0 1-.049-3.264c.01-1.251.431-2.226 1.124-3.007.673-.735 1.574-1.273 2.457-1.59zM6.897.69C4.96.69 3.448 2.584 3.448 4.828c0 2.243 1.513 4.138 3.449 4.138 1.935 0 3.448-1.895 3.448-4.138C10.345 2.584 8.832.69 6.897.69zm0 1.136c1.291 0 2.395 1.3 2.395 3.002 0 1.7-1.104 3-2.395 3-1.292 0-2.396-1.3-2.396-3 0-1.701 1.104-3.002 2.396-3.002z"/>
        <path d="M18.439 8.99c.692.209 1.353.5 1.948.88a6.855 6.855 0 0 1 1.762-.812.496.496 0 0 1 .154-.025.52.52 0 0 1 .42.239c.44.67 1.093 1.068 1.827 1.068.73 0 1.39-.397 1.834-1.068a.517.517 0 0 1 .566-.214c1.098.332 2.105.9 2.853 1.743.748.843 1.217 1.971 1.229 3.298a80.383 80.383 0 0 1-.04 3.23.556.556 0 0 1-.405.512c-3.175.759-5.217 1.031-7.581.812a.536.536 0 0 1-.364.325c-5.704 1.363-8.198 1.363-13.903 0a.556.556 0 0 1-.404-.513 88.757 88.757 0 0 1-.056-3.734c.013-1.512.554-2.79 1.406-3.75.852-.96 2-1.611 3.257-1.991.24-.068.459.064.566.213.524.794 1.307 1.273 2.182 1.273.873 0 1.659-.479 2.183-1.273.16-.214.335-.278.565-.213zm.048 1.154c-.693.867-1.69 1.426-2.796 1.426-1.108 0-2.104-.56-2.797-1.426-.977.345-1.834.886-2.457 1.589-.693.78-1.113 1.756-1.124 3.007a85.132 85.132 0 0 0 .04 3.264c5.227 1.225 7.443 1.223 12.667 0 .037-1.133.056-2.285.048-3.264-.01-1.251-.43-2.226-1.123-3.007-.674-.735-1.575-1.273-2.458-1.59zM24.138.69c1.935 0 3.448 1.894 3.448 4.138 0 2.243-1.513 4.138-3.448 4.138-1.936 0-3.448-1.895-3.448-4.138 0-2.244 1.513-4.138 3.448-4.138zm0 1.136c-1.292 0-2.395 1.3-2.395 3.002 0 1.7 1.103 3 2.395 3s2.395-1.3 2.395-3c0-1.701-1.103-3.002-2.395-3.002z"/>
    </g>
</svg>
