<svg width="64" height="64" viewBox="0 0 64 64" xmlns="http://www.w3.org/2000/svg">
    <g fill-rule="nonzero" fill="none">
        <path d="M32 64C14.356 64 0 49.644 0 32S14.356 0 32 0s32 14.356 32 32-14.356 32-32 32z" fill="#55D27C"/>
        <path d="M45.098 22.9a3.172 3.172 0 0 0-2.216-.9 3.14 3.14 0 0 0-2.216.9L27.558 35.621l-4.198-4.125c-1.21-1.18-3.2-1.195-4.425-.022a3.009 3.009 0 0 0-.038 4.324l6.414 6.302c.59.575 1.385.9 2.224.9.832 0 1.619-.317 2.209-.893l15.34-14.875a3.027 3.027 0 0 0 .022-4.317l-.008-.015z" fill="#FFF"/>
    </g>
</svg>
